#!OML:ASF F:\VICON\USERDATA\INSTALL\rory3\rory3.ASF
:FULLY-SPECIFIED
:DEGREES
310
root 0.4029855923388186 17.666890639607924 63.3557021936431 -1.1137763686236057 1.0634988283512903 -2.0465576438031636
lfemur -12.711828008187236 -3.118370428944865 -17.579962771475966
ltibia 28.886651183216195
lfoot 0.0972506655998977 0.33942207111926326
ltoes -6.029493317898175
rfemur -15.97393907575201 1.726371722829338 25.877619397155634
rtibia 41.89790085392503
rfoot -5.80545835102399 -11.42268738723348
rtoes 5.532560739203687
lowerback 10.83588134629886 -0.5545345326153323 1.8449558329920464
upperback -0.4749476772854173 -0.34738594520867133 2.169150032653006
thorax -6.026286978719257 -0.2758726014763159 1.5418542122021974
lowerneck -16.155735071710765 -3.1454652494861115 -3.4986791043824015
upperneck 22.024564314345852 -3.888554817291376 1.799533632127249
head 9.631178557715437 -1.8656372896371995 0.7652663143472772
lclavicle -2.0243809354098552e-15 -7.104227686902111e-16
lhumerus -33.01420125636622 1.5048563547686724 80.92516225295438
lradius 29.119179151742635
lwrist 6.342082618903616
lhand -29.56702674130025 19.332587976979067
lfingers 7.12502
lthumb -2.3785249512893722 49.64645672040501
rclavicle -2.027034492601008e-15 -7.121020237159231e-16
rhumerus -30.331371635258943 -21.33091426014945 -76.12162396312475
rradius 21.070532173798327
rwrist 6.328015961965171
rhand -17.53706364040173 20.990052855341368
rfingers 7.12502
rthumb 8.08646276662494 -7.741853003789232
311
root 0.3988794421434812 17.63330142291916 63.3086439133283 -1.1911446468189173 0.8410173499910455 -2.4073771034076197
lfemur -13.060061613141006 -3.006422595151566 -17.305363584588214
ltibia 28.77384497826411
lfoot -1.4748596215183305 0.9606625543177216
ltoes -6.705409583011507
rfemur -16.55500714006793 1.5858769927299619 26.242242011964812
rtibia 42.052352752650116
rfoot -6.0018717123416705 -11.571181452778891
rtoes 5.264948114518803
lowerback 11.02533413760005 -0.4690544890245153 2.0725094339622925
upperback -0.48198560769887955 -0.16486514898791355 2.250158624855866
thorax -6.114662640747625 -0.18388690212378644 1.5320646697479072
lowerneck -16.161033504616597 -3.1583542646709253 -3.5133828303110937
upperneck 21.988080086310063 -3.914678355065728 1.826446338047243
head 9.624788856502047 -1.871662414161991 0.7715731945407899
lclavicle -2.0242298196584735e-15 -7.103260559880925e-16
lhumerus -33.22339367787623 1.7798839522669234 80.88983005045529
lradius 28.928010231076847
lwrist 6.10302151678794
lhand -29.54187761791329 19.280154297589966
lfingers 7.12502
lthumb -2.3596320773659194 49.60680347954848
rclavicle -2.027424578544428e-15 -7.123511282771535e-16
rhumerus -30.414718170698507 -21.475501322700396 -76.20729404299563
rradius 21.050992232563264
rwrist 6.373933682847351
rhand -17.58165958353441 20.94382118650479
rfingers 7.12502
rthumb 8.110606182525881 -7.766846931863703
312
root 0.4017044285073922 17.616323276099394 63.27880999408576 -1.3668023031224243 0.6156606844719699 -2.458272131418099
lfemur -13.40337640866395 -2.916021924475943 -17.387823445943177
ltibia 28.53428554712001
lfoot -2.588081661976404 1.3994647177717123
ltoes -6.722900888842893
rfemur -17.14916622735151 1.3536885433894665 26.33666004554041
rtibia 42.223813610529604
rfoot -6.163380283580613 -11.544468114819407
rtoes 4.734430234149025
lowerback 11.176920791871332 -0.36391782868548284 2.088286822527678
upperback -0.44190050678933745 -0.028365306874068297 2.280686590526356
thorax -6.148974025673187 -0.10775886554814168 1.5255251870086028
lowerneck -16.154148175494594 -3.1575320200853474 -3.5019703797585873
upperneck 21.97559693008686 -3.9104869043896633 1.8161588429360818
head 9.617666990222455 -1.8701728077856314 0.7688168394714596
lclavicle -2.0240814405286087e-15 -7.102315766821022e-16
lhumerus -33.40984094002896 2.1644207262702055 80.80634092901582
lradius 28.651588836671973
lwrist 5.85939850535635
lhand -29.538889325844703 19.53203058251839
lfingers 7.12502
lthumb -2.4000145261529853 49.80526146724457
rclavicle -2.026982162185662e-15 -7.120686042582298e-16
rhumerus -30.466240699256662 -21.75577243110111 -76.20983173407225
rradius 20.92845450333013
rwrist 6.519227268760021
rhand -17.5729879943385 20.948341883361586
rfingers 7.12502
rthumb 8.15220486685711 -7.7131421761829
313
root 0.4049981771122021 17.59657988279261 63.48470732608558 -1.443217726256237 0.3864536962473012 -2.353011090676248
lfemur -13.642067238308947 -2.8052453242096904 -17.638674777873323
ltibia 28.379132697471682
lfoot -4.030427771894312 1.4479790542913973
ltoes -7.015119433581587
rfemur -17.730002391356383 1.1442569690368205 26.276408120436002
rtibia 42.31987985778787
rfoot -6.307357247106959 -11.481150476477335
rtoes 4.166404617385496
lowerback 11.27679077296421 -0.24319016135804802 1.9511356311357289
upperback -0.4243341898188465 0.13222263079049407 2.27690912539301
thorax -6.175841800974782 -0.022970686181915223 1.5118949159597008
lowerneck -16.151305132971828 -3.1641436299473162 -3.5011184583714074
upperneck 21.995325038562168 -3.92283245202282 1.8268655991550289
head 9.627606579345292 -1.8724390661487051 0.7743759905872876
lclavicle -2.024650757817392e-15 -7.105939461754708e-16
lhumerus -33.60891619516858 2.635144277384254 80.72365236649567
lradius 28.242138431080654
lwrist 5.437276213073108
lhand -29.46784702651795 19.844038922076745
lfingers 7.12502
lthumb -2.3810159927363213 50.15021186329733
rclavicle -2.027652221626312e-15 -7.124964596443226e-16
rhumerus -30.575716124678742 -22.10273747357822 -76.18681686282753
rradius 20.814080438707308
rwrist 6.535533585886229
rhand -17.604462354758873 20.88488183708849
rfingers 7.12502
rthumb 8.169685098941045 -7.767955011027029
